<svg width="128" height="128" viewBox="0 0 128 128" fill="none" xmlns="http://www.w3.org/2000/svg">
<rect width="128" height="128" fill="#266A75"/>
<path d="M20 45.8847C25.968 36.6282 34.2832 32 44.9456 32C50.762 32 55.6253 33.6344 59.5321 36.9031C63.4407 40.1427 65.3933 44.3805 65.3933 49.6163C65.3933 51.67 65.0762 53.6659 64.4403 55.604C63.8044 57.5421 62.8497 59.4079 61.5778 61.2013C60.3353 62.9659 59.0634 64.5568 57.7605 65.9742C56.4887 67.3915 54.9428 68.9537 53.1247 70.6603L37.4025 85.1525H67.0753V95.9999H22.0439V85.1525L44.3545 64.1953C45.8694 62.7488 47.0206 61.5918 47.8082 60.7241C48.6268 59.8274 49.4453 58.8148 50.2622 57.6868C51.1101 56.5296 51.7012 55.416 52.0356 54.3457C52.3975 53.2754 52.5801 52.1184 52.5801 50.8745C52.5801 48.3289 51.7615 46.3332 50.1261 44.8868C48.4906 43.4116 46.3553 42.6738 43.7186 42.6738C40.7803 42.6738 38.2659 43.4548 36.1755 45.017C34.0851 46.55 32.1015 48.8208 30.223 51.8291L20 45.8847Z" fill="white"/>
<path d="M71.6921 44.8868L91.7762 33.779H104V96H91.4126V46.1451L77.9169 53.4347L71.6921 44.8868Z" fill="white"/>
</svg>
