<svg width="340" height="70" viewBox="0 0 340 70" fill="none" xmlns="http://www.w3.org/2000/svg">
<path d="M0 55.2424C0 51.691 1.31697 48.6723 3.95092 46.1863C6.61447 43.6708 10.3878 42.0134 15.271 41.2144L29.1214 38.8616V37.663C29.1214 35.2658 28.3076 33.357 26.6799 31.9364C25.0521 30.4862 22.9213 29.7611 20.2874 29.7611C18.0381 29.7611 16.0257 30.2346 14.25 31.1817C12.4743 32.0991 11.0685 33.4456 10.0327 35.2213L1.46495 28.7845C3.53659 25.9138 6.22974 23.6793 9.54437 22.0812C12.859 20.483 16.5584 19.6841 20.6425 19.6841C27.035 19.6841 31.9773 21.3709 35.4695 24.7447C38.9913 28.089 40.7522 32.3951 40.7522 37.663V67.3171H29.1214V63.0554C27.6416 64.8904 25.6588 66.3552 23.1728 67.4503C20.7164 68.5748 18.1566 69.1371 15.493 69.1371C10.8465 69.1371 7.10279 67.8941 4.26167 65.4081C1.42056 62.9222 0 59.5336 0 55.2424ZM11.4532 54.754C11.4532 56.2338 12.0303 57.462 13.1845 58.4386C14.3684 59.3857 15.922 59.8592 17.8457 59.8592C22.6697 59.8592 26.4283 57.7136 29.1214 53.4223V47.1185L18.2897 49.0274C13.7321 49.7672 11.4532 51.6762 11.4532 54.754Z" fill="url(#paint0_linear_34_223)"/>
<path d="M49.5862 53.9106C48.432 50.9214 47.855 47.7549 47.855 44.4106C47.855 41.0663 48.432 37.8998 49.5862 34.9106C50.7701 31.9215 52.4126 29.3024 54.5139 27.0531C56.6447 24.7744 59.3082 22.9839 62.5045 21.6817C65.7303 20.3499 69.2669 19.6841 73.1142 19.6841C77.1983 19.6841 80.8977 20.5127 84.2123 22.1701C87.527 23.7978 90.2794 26.0617 92.4693 28.962L83.3245 35.9316C80.8977 32.3802 77.4351 30.6045 72.9366 30.6045C69.1486 30.6045 66.0114 31.9067 63.5255 34.511C61.0692 37.1155 59.841 40.4153 59.841 44.4106C59.841 48.4355 61.0839 51.7502 63.5699 54.3545C66.0559 56.9293 69.2374 58.2167 73.1142 58.2167C75.2747 58.2167 77.228 57.7431 78.974 56.7962C80.7497 55.8194 82.2 54.5025 83.3245 52.8452L92.4693 59.8592C90.2794 62.7595 87.527 65.0382 84.2123 66.6956C80.8977 68.3233 77.1983 69.1371 73.1142 69.1371C69.2669 69.1371 65.7303 68.4861 62.5045 67.1838C59.3082 65.8522 56.6447 64.0616 54.5139 61.8124C52.4126 59.5336 50.7701 56.8997 49.5862 53.9106Z" fill="url(#paint1_linear_34_223)"/>
<path d="M96.731 32.9577V22.4368H105.254V10.9835H116.885V22.4368H130.913V32.9577H116.885V51.5139C116.885 56.249 119.312 58.6167 124.165 58.6167C127.036 58.6167 129.315 58.2763 131.002 57.5956V67.717C128.901 68.6641 125.956 69.1376 122.168 69.1376C116.515 69.1376 112.283 67.6283 109.472 64.6096C106.66 61.5613 105.254 57.1961 105.254 51.5139V32.9577H96.731Z" fill="url(#paint2_linear_34_223)"/>
<path d="M140.324 13.114C138.845 11.6047 138.105 9.82899 138.105 7.78694C138.105 5.74489 138.845 3.984 140.324 2.50425C141.834 0.994905 143.609 0.240234 145.651 0.240234C147.693 0.240234 149.439 0.994905 150.89 2.50425C152.369 3.984 153.109 5.74489 153.109 7.78694C153.109 9.82899 152.369 11.6047 150.89 13.114C149.439 14.5938 147.693 15.3337 145.651 15.3337C143.609 15.3337 141.834 14.5938 140.324 13.114ZM139.835 69.1372V23.3243H151.377V69.1372H139.835Z" fill="url(#paint3_linear_34_223)"/>
<path d="M163.32 56.8848C161.247 53.1263 160.211 48.9682 160.211 44.4106C160.211 39.853 161.247 35.6949 163.32 31.9364C165.421 28.1778 168.394 25.2035 172.242 23.0135C176.089 20.7938 180.44 19.6841 185.293 19.6841C190.147 19.6841 194.497 20.7938 198.345 23.0135C202.192 25.2035 205.151 28.1778 207.223 31.9364C209.324 35.6949 210.374 39.853 210.374 44.4106C210.374 48.9682 209.324 53.1263 207.223 56.8848C205.151 60.6435 202.192 63.6324 198.345 65.8522C194.497 68.0421 190.147 69.1371 185.293 69.1371C180.44 69.1371 176.089 68.0421 172.242 65.8522C168.394 63.6324 165.421 60.6435 163.32 56.8848ZM175.971 34.511C173.455 37.1155 172.197 40.4153 172.197 44.4106C172.197 48.4059 173.455 51.7057 175.971 54.3102C178.487 56.9145 181.653 58.2167 185.47 58.2167C189.17 58.2167 192.248 56.8997 194.704 54.2657C197.16 51.6317 198.389 48.3467 198.389 44.4106C198.389 40.4153 197.16 37.1155 194.704 34.511C192.248 31.9067 189.17 30.6045 185.47 30.6045C181.653 30.6045 178.487 31.9067 175.971 34.511Z" fill="url(#paint4_linear_34_223)"/>
<path d="M217.477 69.1375V23.3246H229.019V26.9647C232.778 23.3246 237.291 21.5045 242.558 21.5045C247.738 21.5045 251.999 23.2802 255.343 26.8316C258.687 30.3533 260.359 35.3697 260.359 41.8806V69.1375H248.64V42.3245C248.64 39.2763 247.841 36.8642 246.243 35.0885C244.645 33.3128 242.44 32.4249 239.629 32.4249C235.22 32.4249 231.683 34.689 229.019 39.217V69.1375H217.477Z" fill="url(#paint5_linear_34_223)"/>
<path d="M267.462 25.8755C272.382 17.8848 279.236 13.8895 288.025 13.8895C292.819 13.8895 296.828 15.3004 300.048 18.1221C303.27 20.9187 304.88 24.5769 304.88 29.0967C304.88 30.8696 304.618 32.5926 304.094 34.2656C303.57 35.9387 302.783 37.5493 301.734 39.0974C300.71 40.6207 299.662 41.9941 298.588 43.2176C297.54 44.4411 296.265 45.7897 294.767 47.2629L281.807 59.7732H306.266V69.1372H269.147V59.7732L287.537 41.682C288.786 40.4333 289.735 39.4345 290.384 38.6855C291.059 37.9114 291.734 37.0373 292.407 36.0636C293.106 35.0646 293.593 34.1033 293.869 33.1794C294.167 32.2555 294.318 31.2567 294.318 30.1829C294.318 27.9854 293.643 26.2626 292.295 25.014C290.947 23.7405 289.187 23.1037 287.013 23.1037C284.591 23.1037 282.519 23.7779 280.795 25.1264C279.072 26.4498 277.437 28.41 275.889 31.0069L267.462 25.8755Z" fill="url(#paint6_linear_34_223)"/>
<path d="M313.369 25.014L329.924 15.4252H340V69.1373H329.624V26.1003L318.5 32.3929L313.369 25.014Z" fill="url(#paint7_linear_34_223)"/>
<defs>
<linearGradient id="paint0_linear_34_223" x1="-23.7835" y1="37.2497" x2="349.823" y2="37.2497" gradientUnits="userSpaceOnUse">
<stop offset="0.628" stop-color="white"/>
<stop offset="1" stop-color="#D9DDDD"/>
</linearGradient>
<linearGradient id="paint1_linear_34_223" x1="-23.7835" y1="37.2497" x2="349.823" y2="37.2497" gradientUnits="userSpaceOnUse">
<stop offset="0.628" stop-color="white"/>
<stop offset="1" stop-color="#D9DDDD"/>
</linearGradient>
<linearGradient id="paint2_linear_34_223" x1="-23.7835" y1="37.2497" x2="349.823" y2="37.2497" gradientUnits="userSpaceOnUse">
<stop offset="0.628" stop-color="white"/>
<stop offset="1" stop-color="#D9DDDD"/>
</linearGradient>
<linearGradient id="paint3_linear_34_223" x1="-23.7835" y1="37.2497" x2="349.823" y2="37.2497" gradientUnits="userSpaceOnUse">
<stop offset="0.628" stop-color="white"/>
<stop offset="1" stop-color="#D9DDDD"/>
</linearGradient>
<linearGradient id="paint4_linear_34_223" x1="-23.7835" y1="37.2497" x2="349.823" y2="37.2497" gradientUnits="userSpaceOnUse">
<stop offset="0.628" stop-color="white"/>
<stop offset="1" stop-color="#D9DDDD"/>
</linearGradient>
<linearGradient id="paint5_linear_34_223" x1="-23.7835" y1="37.2497" x2="349.823" y2="37.2497" gradientUnits="userSpaceOnUse">
<stop offset="0.628" stop-color="white"/>
<stop offset="1" stop-color="#D9DDDD"/>
</linearGradient>
<linearGradient id="paint6_linear_34_223" x1="-23.7835" y1="37.2497" x2="349.823" y2="37.2497" gradientUnits="userSpaceOnUse">
<stop offset="0.628" stop-color="white"/>
<stop offset="1" stop-color="#D9DDDD"/>
</linearGradient>
<linearGradient id="paint7_linear_34_223" x1="-23.7835" y1="37.2497" x2="349.823" y2="37.2497" gradientUnits="userSpaceOnUse">
<stop offset="0.628" stop-color="white"/>
<stop offset="1" stop-color="#D9DDDD"/>
</linearGradient>
</defs>
</svg>
