<svg width="160" height="33" viewBox="0 0 160 33" fill="none" xmlns="http://www.w3.org/2000/svg">
<path d="M0 26.0462C0 24.3968 0.619751 22.9947 1.85926 21.8401C3.11269 20.6717 4.88839 19.9019 7.18635 19.5308L13.7042 18.4381V17.8813C13.7042 16.7679 13.3212 15.8814 12.5552 15.2216C11.7892 14.548 10.7865 14.2112 9.54701 14.2112C8.48851 14.2112 7.54152 14.4311 6.7059 14.871C5.87024 15.2971 5.20871 15.9225 4.72126 16.7473L0.689388 13.7576C1.66428 12.4243 2.93164 11.3865 4.49147 10.6442C6.05129 9.90195 7.79221 9.53088 9.71414 9.53088C12.7224 9.53088 15.0481 10.3143 16.6915 11.8813C18.3489 13.4346 19.1775 15.4346 19.1775 17.8813V31.6544H13.7042V29.6751C13.0078 30.5273 12.0747 31.2077 10.9049 31.7163C9.7489 32.2386 8.54427 32.4998 7.29083 32.4998C5.10426 32.4998 3.34249 31.9225 2.00549 30.7678C0.668497 29.6132 0 28.0393 0 26.0462ZM5.38976 25.8194C5.38976 26.5067 5.66134 27.0772 6.20449 27.5308C6.76158 27.9706 7.49272 28.1905 8.398 28.1905C10.6681 28.1905 12.4369 27.194 13.7042 25.2009V22.273L8.6069 23.1596C6.46214 23.5033 5.38976 24.3899 5.38976 25.8194Z" fill="url(#paint0_linear_1_102)"/>
<path d="M23.3347 25.4277C22.7915 24.0393 22.52 22.5686 22.52 21.0153C22.52 19.462 22.7915 17.9913 23.3347 16.603C23.8918 15.2146 24.6647 13.9982 25.6536 12.9535C26.6563 11.8951 27.9098 11.0635 29.4139 10.4587C30.9319 9.84013 32.5962 9.53088 34.4067 9.53088C36.3286 9.53088 38.0695 9.91574 39.6293 10.6855C41.1892 11.4415 42.4844 12.493 43.515 13.8401L39.2115 17.0772C38.0695 15.4277 36.4401 14.603 34.3231 14.603C32.5405 14.603 31.0642 15.2078 29.8943 16.4174C28.7384 17.627 28.1604 19.1597 28.1604 21.0153C28.1604 22.8847 28.7454 24.4243 29.9153 25.6339C31.0851 26.8297 32.5823 27.4277 34.4067 27.4277C35.4234 27.4277 36.3426 27.2077 37.1642 26.7679C37.9999 26.3142 38.6823 25.7026 39.2115 24.9328L43.515 28.1905C42.4844 29.5376 41.1892 30.596 39.6293 31.3658C38.0695 32.1218 36.3286 32.4998 34.4067 32.4998C32.5962 32.4998 30.9319 32.1974 29.4139 31.5926C27.9098 30.9741 26.6563 30.1424 25.6536 29.0978C24.6647 28.0393 23.8918 26.816 23.3347 25.4277Z" fill="url(#paint1_linear_1_102)"/>
<path d="M45.5205 15.6959V10.8094H49.5314V5.48983H55.0048V10.8094H61.6062V15.6959H55.0048V24.3145C55.0048 26.5138 56.1468 27.6135 58.4308 27.6135C59.7818 27.6135 60.8541 27.4554 61.648 27.1392V31.8402C60.6592 32.2801 59.2735 32.5 57.4908 32.5C54.8307 32.5 52.8392 31.799 51.5161 30.3969C50.193 28.9811 49.5314 26.9537 49.5314 24.3145V15.6959H45.5205Z" fill="url(#paint2_linear_1_102)"/>
<path d="M66.0346 6.47935C65.3387 5.77832 64.9904 4.95359 64.9904 4.00514C64.9904 3.05669 65.3387 2.23882 66.0346 1.55154C66.7453 0.850514 67.5809 0.5 68.5415 0.5C69.5028 0.5 70.3244 0.850514 71.0069 1.55154C71.7028 2.23882 72.0511 3.05669 72.0511 4.00514C72.0511 4.95359 71.7028 5.77832 71.0069 6.47935C70.3244 7.16665 69.5028 7.51027 68.5415 7.51027C67.5809 7.51027 66.7453 7.16665 66.0346 6.47935ZM65.8047 32.4998V11.2216H71.2362V32.4998H65.8047Z" fill="url(#paint3_linear_1_102)"/>
<path d="M76.8563 26.8091C75.881 25.0634 75.3936 23.1321 75.3936 21.0153C75.3936 18.8985 75.881 16.9672 76.8563 15.2216C77.845 13.4758 79.2442 12.0944 81.0551 11.0772C82.8654 10.0463 84.913 9.53088 87.1966 9.53088C89.4809 9.53088 91.5278 10.0463 93.3388 11.0772C95.1491 12.0944 96.5415 13.4758 97.5169 15.2216C98.5056 16.9672 98.9996 18.8985 98.9996 21.0153C98.9996 23.1321 98.5056 25.0634 97.5169 26.8091C96.5415 28.5548 95.1491 29.9431 93.3388 30.9741C91.5278 31.9912 89.4809 32.4998 87.1966 32.4998C84.913 32.4998 82.8654 31.9912 81.0551 30.9741C79.2442 29.9431 77.845 28.5548 76.8563 26.8091ZM82.8099 16.4174C81.626 17.627 81.0337 19.1597 81.0337 21.0153C81.0337 22.871 81.626 24.4036 82.8099 25.6133C83.9938 26.8229 85.4839 27.4277 87.2802 27.4277C89.0209 27.4277 90.4696 26.816 91.6254 25.5926C92.7812 24.3692 93.3595 22.8435 93.3595 21.0153C93.3595 19.1597 92.7812 17.627 91.6254 16.4174C90.4696 15.2078 89.0209 14.603 87.2802 14.603C85.4839 14.603 83.9938 15.2078 82.8099 16.4174Z" fill="url(#paint4_linear_1_102)"/>
<path d="M102.342 32.5V11.2217H107.774V12.9124C109.542 11.2217 111.666 10.3764 114.145 10.3764C116.582 10.3764 118.588 11.2011 120.162 12.8506C121.735 14.4863 122.522 16.8162 122.522 19.8402V32.5H117.007V20.0464C117.007 18.6306 116.631 17.5103 115.879 16.6856C115.127 15.8608 114.09 15.4485 112.767 15.4485C110.692 15.4485 109.027 16.5 107.774 18.6031V32.5H102.342Z" fill="url(#paint5_linear_1_102)"/>
<path d="M125.865 12.4065C128.18 8.69519 131.405 6.83953 135.541 6.83953C137.797 6.83953 139.684 7.49483 141.199 8.80538C142.715 10.1043 143.473 11.8034 143.473 13.9027C143.473 14.7261 143.35 15.5263 143.103 16.3034C142.856 17.0805 142.486 17.8285 141.993 18.5476C141.511 19.2551 141.017 19.893 140.512 20.4612C140.019 21.0295 139.419 21.6558 138.714 22.3401L132.615 28.1506H144.125V32.4998H126.657V28.1506L135.312 19.748C135.899 19.168 136.346 18.7041 136.651 18.3562C136.969 17.9967 137.286 17.5907 137.603 17.1385C137.932 16.6745 138.162 16.228 138.291 15.7989C138.432 15.3698 138.502 14.9059 138.502 14.4071C138.502 13.3865 138.185 12.5863 137.551 12.0064C136.916 11.4149 136.088 11.1191 135.065 11.1191C133.925 11.1191 132.95 11.4323 132.139 12.0586C131.328 12.6733 130.559 13.5837 129.83 14.7899L125.865 12.4065Z" fill="url(#paint6_linear_1_102)"/>
<path d="M147.468 12.0064L155.258 7.5528H160V32.4999H155.117V12.5109L149.882 15.4336L147.468 12.0064Z" fill="url(#paint7_linear_1_102)"/>
<defs>
<linearGradient id="paint0_linear_1_102" x1="-11.1922" y1="17.6894" x2="164.623" y2="17.6894" gradientUnits="userSpaceOnUse">
<stop offset="0.628" stop-color="#263D75"/>
<stop offset="1" stop-color="#266F75"/>
</linearGradient>
<linearGradient id="paint1_linear_1_102" x1="-11.1922" y1="17.6894" x2="164.623" y2="17.6894" gradientUnits="userSpaceOnUse">
<stop offset="0.628" stop-color="#263D75"/>
<stop offset="1" stop-color="#266F75"/>
</linearGradient>
<linearGradient id="paint2_linear_1_102" x1="-11.1922" y1="17.6894" x2="164.623" y2="17.6894" gradientUnits="userSpaceOnUse">
<stop offset="0.628" stop-color="#263D75"/>
<stop offset="1" stop-color="#266F75"/>
</linearGradient>
<linearGradient id="paint3_linear_1_102" x1="-11.1922" y1="17.6894" x2="164.623" y2="17.6894" gradientUnits="userSpaceOnUse">
<stop offset="0.628" stop-color="#263D75"/>
<stop offset="1" stop-color="#266F75"/>
</linearGradient>
<linearGradient id="paint4_linear_1_102" x1="-11.1922" y1="17.6894" x2="164.623" y2="17.6894" gradientUnits="userSpaceOnUse">
<stop offset="0.628" stop-color="#263D75"/>
<stop offset="1" stop-color="#266F75"/>
</linearGradient>
<linearGradient id="paint5_linear_1_102" x1="-11.1922" y1="17.6894" x2="164.623" y2="17.6894" gradientUnits="userSpaceOnUse">
<stop offset="0.628" stop-color="#263D75"/>
<stop offset="1" stop-color="#266F75"/>
</linearGradient>
<linearGradient id="paint6_linear_1_102" x1="-11.1922" y1="17.6894" x2="164.623" y2="17.6894" gradientUnits="userSpaceOnUse">
<stop offset="0.628" stop-color="#263D75"/>
<stop offset="1" stop-color="#266F75"/>
</linearGradient>
<linearGradient id="paint7_linear_1_102" x1="-11.1922" y1="17.6894" x2="164.623" y2="17.6894" gradientUnits="userSpaceOnUse">
<stop offset="0.628" stop-color="#263D75"/>
<stop offset="1" stop-color="#266F75"/>
</linearGradient>
</defs>
</svg>
